<svg width="168" height="40" viewBox="0 0 168 40" fill="none" xmlns="http://www.w3.org/2000/svg">
<path d="M0 20C0 13.7874 0 10.6812 1.01496 8.23089C2.36823 4.96385 4.96393 2.36819 8.23103 1.01494C10.6814 0 13.7877 0 20.0003 0C26.213 0 29.3193 0 31.7697 1.01494C35.0368 2.36819 37.6325 4.96385 38.9857 8.23089C40.0007 10.6812 40.0007 13.7874 40.0007 20C40.0007 26.2126 40.0007 29.3188 38.9857 31.7691C37.6325 35.0362 35.0368 37.6318 31.7697 38.9851C29.3193 40 26.213 40 20.0003 40C13.7877 40 10.6814 40 8.23103 38.9851C4.96393 37.6318 2.36823 35.0362 1.01496 31.7691C0 29.3188 0 26.2126 0 20Z" fill="#132D6F"/>
<path d="M18.1207 18.1203C18.2565 19.3703 18.2565 20.6322 18.1207 21.8798C14.3421 22.2893 10.673 23.9393 7.78247 26.8298C11.5492 23.0631 11.5492 16.937 7.78247 13.1703C10.673 16.0584 14.3421 17.7108 18.1207 18.1203Z" fill="#146EF6"/>
<path d="M13.1705 32.2179C11.6823 33.7059 9.27039 33.7059 7.78227 32.2179C7.54894 31.9845 7.35369 31.7298 7.19417 31.4583C7.12988 31.3512 7.07274 31.2393 7.02036 31.1274C6.86797 30.7964 6.76321 30.4488 6.71083 30.0964C6.70845 30.0798 6.70606 30.0655 6.70368 30.0512C6.67987 29.8774 6.66797 29.7012 6.66797 29.525C6.66797 29.3417 6.67987 29.1583 6.70606 28.9774C6.75845 28.6155 6.86321 28.2583 7.02036 27.9202C7.07274 27.8083 7.12988 27.6964 7.19417 27.5893C7.35369 27.3179 7.54894 27.0631 7.78227 26.8298C10.6728 23.9393 14.3419 22.2893 18.1205 21.8798C17.711 25.6583 16.061 29.3274 13.1705 32.2179Z" fill="#FE61D4"/>
<path d="M21.8801 21.8797C22.2896 25.6583 23.942 29.3274 26.8302 32.2178C23.0634 28.4512 16.9371 28.4512 13.1704 32.2178C16.0609 29.3274 17.711 25.6583 18.1205 21.8797C19.3681 21.744 20.6301 21.744 21.8801 21.8797Z" fill="#F938C5"/>
<path d="M32.2184 26.8298C33.7065 28.3179 33.7065 30.7298 32.2184 32.2178C31.8922 32.544 31.5231 32.7988 31.1279 32.9798C30.7898 33.1369 30.435 33.2417 30.0707 33.294C29.8898 33.3202 29.7064 33.3321 29.5255 33.3321C29.3422 33.3321 29.1588 33.3202 28.9779 33.294C28.616 33.2417 28.2588 33.1369 27.9207 32.9798C27.8088 32.9274 27.6969 32.8702 27.5897 32.8059C27.3183 32.6488 27.0635 32.4512 26.8302 32.2178C23.9421 29.3274 22.2897 25.6583 21.8801 21.8798C25.6588 22.2893 29.3279 23.9393 32.2184 26.8298Z" fill="#9B6BFF"/>
<path d="M26.8302 7.78215C28.3183 6.29405 30.7303 6.29405 32.2184 7.78215C32.3113 7.87501 32.3994 7.97262 32.4803 8.07262C32.5613 8.17262 32.6351 8.27501 32.7065 8.37977C32.7422 8.43215 32.7756 8.48691 32.8065 8.54167C32.9351 8.75596 33.0375 8.98215 33.1208 9.21548C33.1827 9.38929 33.2303 9.56786 33.266 9.74881C33.2875 9.87024 33.3065 9.98929 33.3184 10.1107C33.3398 10.3536 33.3398 10.5988 33.3184 10.8417C33.3065 10.9631 33.2875 11.0845 33.266 11.2036C33.2303 11.3845 33.1827 11.5631 33.1208 11.7369C33.0375 11.9702 32.9351 12.1964 32.8065 12.4107C32.7756 12.4655 32.7422 12.5179 32.7065 12.5726C32.6351 12.6774 32.5613 12.7821 32.4803 12.8821C32.3994 12.9798 32.3113 13.0774 32.2184 13.1702C29.3279 16.0583 25.6588 17.7107 21.8801 18.1202C22.2897 14.3417 23.9421 10.6726 26.8302 7.78215Z" fill="#EBEFFD"/>
<path d="M26.8302 7.7821C23.942 10.6726 22.2896 14.3416 21.8801 18.1202C20.6301 18.2559 19.3681 18.2559 18.1205 18.1202C17.711 14.3416 16.0609 10.6726 13.1704 7.7821C16.9371 11.5488 23.0634 11.5488 26.8302 7.7821Z" fill="#44C7FF"/>
<path d="M13.1705 7.78213C16.0611 10.6726 17.7111 14.3417 18.1206 18.1202C14.342 17.7107 10.6729 16.0583 7.78235 13.1702C6.29423 11.6821 6.29423 9.27023 7.78235 7.78213C7.87521 7.68928 7.97283 7.60118 8.07045 7.52023C8.17045 7.43928 8.27522 7.36547 8.37998 7.29404C8.43474 7.25832 8.48712 7.22499 8.54189 7.19404C9.13714 6.84404 9.80619 6.66785 10.4776 6.66785C11.0848 6.66785 11.6943 6.81308 12.2467 7.10118C12.3586 7.1607 12.4681 7.22499 12.5729 7.29404C12.6777 7.36547 12.7801 7.43928 12.8801 7.52023C12.9801 7.60118 13.0777 7.68928 13.1705 7.78213Z" fill="#54EAFF"/>
<path d="M65.0583 28.8857C64.525 29.3238 63.8678 29.6762 63.0868 29.9429C62.3249 30.1905 61.5535 30.3143 60.7725 30.3143C59.4391 30.3143 58.2677 30.0572 57.2582 29.5429C56.2486 29.0286 55.4581 28.2952 54.8867 27.3429C54.3343 26.3905 54.0581 25.2572 54.0581 23.9429C54.0581 22.6286 54.3533 21.4952 54.9438 20.5429C55.5534 19.5905 56.3439 18.8667 57.3153 18.3714C58.2867 17.8572 59.3344 17.6 60.4582 17.6C61.4678 17.6 62.363 17.7429 63.144 18.0286C63.9249 18.2952 64.6011 18.6667 65.1726 19.1429L63.5726 21.2286C63.2678 20.981 62.8678 20.7524 62.3725 20.5429C61.8963 20.3143 61.3535 20.2 60.7439 20.2C60.0963 20.2 59.5058 20.3619 58.9725 20.6857C58.4582 21.0095 58.0391 21.4572 57.7153 22.0286C57.4105 22.581 57.2582 23.2191 57.2582 23.9429C57.2582 24.9714 57.6105 25.8572 58.3153 26.6C59.0201 27.3238 59.9344 27.6857 61.0582 27.6857C61.9916 27.6857 62.7916 27.4191 63.4583 26.8857L65.0583 28.8857Z" fill="#132D6F"/>
<path d="M67.3396 23.8286C67.3396 22.6095 67.6253 21.5143 68.1967 20.5429C68.7872 19.5714 69.5872 18.8 70.5968 18.2286C71.6254 17.6572 72.8063 17.3714 74.1397 17.3714C75.4921 17.3714 76.6636 17.6572 77.654 18.2286C78.6636 18.8 79.4446 19.5714 79.9969 20.5429C80.5493 21.5143 80.8255 22.6095 80.8255 23.8286C80.8255 25.0476 80.5493 26.1524 79.9969 27.1429C79.4446 28.1143 78.6636 28.8857 77.654 29.4572C76.6445 30.0286 75.4635 30.3143 74.1111 30.3143C72.7968 30.3143 71.6254 30.0572 70.5968 29.5429C69.5872 29.0095 68.7872 28.2572 68.1967 27.2857C67.6253 26.3143 67.3396 25.1619 67.3396 23.8286ZM70.5682 23.8572C70.5682 24.581 70.7206 25.2381 71.0254 25.8286C71.3301 26.4 71.7397 26.8572 72.254 27.2C72.7873 27.5238 73.3873 27.6857 74.054 27.6857C75.1016 27.6857 75.9493 27.3238 76.5969 26.6C77.2445 25.8572 77.5683 24.9429 77.5683 23.8572C77.5683 22.7714 77.2445 21.8572 76.5969 21.1143C75.9493 20.3714 75.1016 20 74.054 20C73.3873 20 72.7873 20.181 72.254 20.5429C71.7397 20.8857 71.3301 21.3524 71.0254 21.9429C70.7206 22.5143 70.5682 23.1524 70.5682 23.8572Z" fill="#132D6F"/>
<path d="M84.1881 7.71429H87.3881V30H84.1881V7.71429Z" fill="#132D6F"/>
<path d="M96.8633 30.3143C95.7204 30.3143 94.6918 30.0762 93.7775 29.6C92.8632 29.1238 92.1299 28.4191 91.5775 27.4857C91.0442 26.5524 90.7775 25.381 90.7775 23.9714C90.7775 22.6 91.0537 21.4286 91.6061 20.4572C92.1775 19.4667 92.9204 18.7048 93.8347 18.1714C94.768 17.6381 95.7776 17.3714 96.8633 17.3714C97.9871 17.3714 98.8919 17.5905 99.5776 18.0286C100.282 18.4476 100.844 18.9524 101.263 19.5429L101.492 17.9143H104.435V30H101.235V28.2286C101.025 28.4762 100.721 28.7619 100.321 29.0857C99.9205 29.4095 99.4252 29.6952 98.8348 29.9429C98.2633 30.1905 97.6062 30.3143 96.8633 30.3143ZM97.749 27.6857C98.6062 27.6857 99.3395 27.4572 99.9491 27C100.559 26.5429 100.987 25.9143 101.235 25.1143V22.4857C101.006 21.7429 100.568 21.1429 99.9205 20.6857C99.2729 20.2286 98.5109 20 97.6347 20C96.9681 20 96.3585 20.1619 95.8061 20.4857C95.2728 20.7905 94.8347 21.2381 94.4918 21.8286C94.168 22.4 94.0061 23.0572 94.0061 23.8C94.0061 24.5238 94.1775 25.181 94.5204 25.7714C94.8633 26.3619 95.3109 26.8286 95.8633 27.1714C96.4347 27.5143 97.0633 27.6857 97.749 27.6857Z" fill="#132D6F"/>
<path d="M116.997 17.9143L119.854 24.5429L122.454 17.9143H125.597L120.082 30.7143L116.197 22.5429L112.654 30.7143L107.082 17.9143H110.225L113.025 24.3429L115.054 19.7143L114.225 17.9143H116.997Z" fill="#132D6F"/>
<path d="M126.883 23.8286C126.883 22.6095 127.169 21.5143 127.74 20.5429C128.331 19.5714 129.131 18.8 130.14 18.2286C131.169 17.6572 132.35 17.3714 133.683 17.3714C135.036 17.3714 136.207 17.6572 137.197 18.2286C138.207 18.8 138.988 19.5714 139.54 20.5429C140.093 21.5143 140.369 22.6095 140.369 23.8286C140.369 25.0476 140.093 26.1524 139.54 27.1429C138.988 28.1143 138.207 28.8857 137.197 29.4572C136.188 30.0286 135.007 30.3143 133.655 30.3143C132.34 30.3143 131.169 30.0572 130.14 29.5429C129.131 29.0095 128.331 28.2572 127.74 27.2857C127.169 26.3143 126.883 25.1619 126.883 23.8286ZM130.112 23.8572C130.112 24.581 130.264 25.2381 130.569 25.8286C130.874 26.4 131.283 26.8572 131.797 27.2C132.331 27.5238 132.931 27.6857 133.597 27.6857C134.645 27.6857 135.493 27.3238 136.14 26.6C136.788 25.8572 137.112 24.9429 137.112 23.8572C137.112 22.7714 136.788 21.8572 136.14 21.1143C135.493 20.3714 134.645 20 133.597 20C132.931 20 132.331 20.181 131.797 20.5429C131.283 20.8857 130.874 21.3524 130.569 21.9429C130.264 22.5143 130.112 23.1524 130.112 23.8572Z" fill="#132D6F"/>
<path d="M146.617 17.9143L146.846 20.7143C147.189 20.0286 147.655 19.4381 148.246 18.9429C148.836 18.4286 149.436 18.0381 150.046 17.7714C150.674 17.5048 151.189 17.3714 151.589 17.3714L151.446 20.5714C150.532 20.4952 149.732 20.6572 149.046 21.0572C148.379 21.4572 147.855 22 147.474 22.6857C147.113 23.3524 146.932 24.0571 146.932 24.8V30H143.732V17.9143H146.617Z" fill="#132D6F"/>
<path d="M154.865 30V7.71429H158.065V22.2857L164.122 17.6286L166.065 19.3429L161.665 22.7714L166.579 30H162.865L159.436 24.5143L158.065 25.6V30H154.865Z" fill="#132D6F"/>
</svg>
